<svg height="394pt" viewBox="-33 0 394 394.57113" width="394pt" xmlns="http://www.w3.org/2000/svg"><path d="m307.484375 195.90625c0 84.828125-68.769531 153.597656-153.597656 153.597656-84.832031 0-153.601563-68.769531-153.601563-153.597656 0-84.832031 68.769532-153.601562 153.601563-153.601562 84.828125 0 153.597656 68.769531 153.597656 153.601562zm0 0" fill="#efefd2"/><path d="m225.566406 25.820312v146.269532c50.746094-9.1875 88.550782-43.984375 88.550782-85.609375 0-34.203125-25.519532-63.792969-62.765626-78.355469-12.382812-4.847656-25.785156 4.394531-25.785156 17.695312zm0 0" fill="#a9ba5a"/><path d="m225.566406 178.914062c-1.589844 0-3.140625-.550781-4.375-1.585937-1.550781-1.296875-2.453125-3.21875-2.453125-5.238281v-146.269532c0-8.53125 4.214844-16.503906 11.28125-21.324218 7.019531-4.800782 15.933594-5.820313 23.820313-2.730469 41.390625 16.183594 67.105468 48.644531 67.105468 84.710937 0 44.324219-38.722656 82.292969-94.167968 92.328126-.398438.074218-.804688.109374-1.210938.109374zm18.917969-165.273437c-2.367187 0-4.707031.722656-6.773437 2.128906-3.378907 2.308594-5.320313 5.972657-5.320313 10.050781v137.851563c44.5-10.785156 74.902344-41.6875 74.902344-77.195313 0-30.316406-22.386719-57.902343-58.425781-72-1.433594-.558593-2.914063-.835937-4.382813-.835937zm0 0" fill="#4c241d"/><path d="m184.605469 25.820312c0-13.296874-13.402344-22.539062-25.789063-17.699218-37.246094 14.566406-62.761718 44.152344-62.761718 78.355468 0 41.628907 37.804687 76.425782 88.550781 85.613282zm0 0" fill="#a9ba5a"/><path d="m184.605469 178.914062c-.40625 0-.8125-.035156-1.214844-.109374-55.445313-10.035157-94.164063-48.003907-94.164063-92.328126 0-36.066406 25.710938-68.523437 67.105469-84.710937 7.886719-3.097656 16.800781-2.078125 23.820313 2.730469 7.066406 4.820312 11.277344 12.792968 11.277344 21.324218v146.269532c0 2.023437-.898438 3.941406-2.453126 5.238281-1.230468 1.035156-2.785156 1.585937-4.371093 1.585937zm-18.921875-165.273437c-1.464844 0-2.945313.277344-4.378906.835937-36.039063 14.097657-58.425782 41.683594-58.425782 72 0 35.507813 30.398438 66.410157 74.902344 77.195313v-137.851563c0-4.078124-1.941406-7.742187-5.320312-10.050781-2.070313-1.40625-4.410157-2.128906-6.777344-2.128906zm0 0" fill="#4c241d"/><path d="m263.792969 157.765625c0 32.425781-26.28125 58.710937-58.707031 58.710937-32.425782 0-58.710938-26.285156-58.710938-58.710937s26.285156-58.707031 58.710938-58.707031c32.425781 0 58.707031 26.28125 58.707031 58.707031zm0 0" fill="#a9ba5a"/><path d="m205.085938 223.300781c-36.132813 0-65.53125-29.398437-65.53125-65.535156s29.398437-65.53125 65.53125-65.53125c36.132812 0 65.53125 29.394531 65.53125 65.53125s-29.398438 65.535156-65.53125 65.535156zm0-117.414062c-28.609376 0-51.878907 23.273437-51.878907 51.878906 0 28.609375 23.273438 51.882813 51.878907 51.882813 28.605468 0 51.878906-23.273438 51.878906-51.882813 0-28.605469-23.273438-51.878906-51.878906-51.878906zm0 0" fill="#4c241d"/><path d="m205.085938 387.746094c-67.5625 0-120.882813-56.902344-115.882813-123.671875l8.429687-112.542969h214.90625l8.429688 112.542969c5 66.769531-48.320312 123.671875-115.882812 123.671875zm0 0" fill="#fff"/><g fill="#4c241d"><path d="m205.085938 394.570312c-34.308594 0-67.308594-14.359374-90.539063-39.390624-23.277344-25.089844-34.695313-57.625-32.148437-91.617188l8.425781-112.542969c.269531-3.5625 3.234375-6.316406 6.808593-6.316406h214.90625c3.574219 0 6.539063 2.753906 6.804688 6.316406l8.429688 112.542969c2.546874 33.992188-8.875 66.527344-32.148438 91.617188-23.230469 25.03125-56.230469 39.390624-90.539062 39.390624zm-101.121094-236.210937-7.953125 106.222656c-2.257813 30.164063 7.878906 59.039063 28.542969 81.304688 20.65625 22.265625 50.011718 35.03125 80.53125 35.03125 30.523437 0 59.875-12.765625 80.535156-35.03125s30.800781-51.140625 28.539062-81.304688l-7.949218-106.222656zm0 0"/><path d="m205.085938 356.332031c-3.773438 0-6.828126-3.058593-6.828126-6.828125 0-3.769531 3.054688-6.824218 6.828126-6.824218 28.832031 0 55.871093-15.441407 70.574218-40.289063 1.917969-3.246094 6.121094-4.316406 9.347656-2.40625 3.246094 1.921875 4.320313 6.109375 2.398438 9.351563-17.140625 28.988281-48.679688 46.996093-82.320312 46.996093zm0 0"/><path d="m292.320312 284.027344c-.421874 0-.839843-.035156-1.269531-.113282-3.707031-.699218-6.144531-4.265624-5.445312-7.972656.925781-4.957031 1.398437-10.066406 1.398437-15.179687 0-3.773438 3.054688-6.828125 6.828125-6.828125 3.773438 0 6.828125 3.054687 6.828125 6.828125 0 5.957031-.554687 11.914062-1.640625 17.703125-.613281 3.277344-3.480469 5.5625-6.699219 5.5625zm0 0"/></g></svg>